<svg xmlns="http://www.w3.org/2000/svg" viewBox="0 0 480 680" width="480" height="680">
  <defs>
    <linearGradient id="bg" x1="0%" y1="0%" x2="100%" y2="100%">
      <stop offset="0%" stop-color="#f7f0eb"/>
      <stop offset="100%" stop-color="#f0e8e0"/>
    </linearGradient>
    <linearGradient id="vineGold" x1="0%" y1="0%" x2="100%" y2="100%">
      <stop offset="0%" stop-color="#b89878"/>
      <stop offset="50%" stop-color="#d0b090"/>
      <stop offset="100%" stop-color="#a07858"/>
    </linearGradient>
    <filter id="linen">
      <feTurbulence type="fractalNoise" baseFrequency="0.65" numOctaves="3" stitchTiles="stitch" result="noise"/>
      <feColorMatrix type="saturate" values="0" in="noise" result="grayNoise"/>
      <feBlend in="SourceGraphic" in2="grayNoise" mode="multiply" result="blended"/>
      <feComposite in="blended" in2="SourceGraphic" operator="in"/>
    </filter>
  </defs>

  <rect width="480" height="680" fill="url(#bg)"/>
  <rect width="480" height="680" fill="#d8c0b0" opacity="0.04" filter="url(#linen)"/>

  <!-- Outer border -->
  <rect x="26" y="26" width="428" height="628" fill="none" stroke="#c0a080" stroke-width="0.8" opacity="0.35"/>
  <rect x="32" y="32" width="416" height="616" fill="none" stroke="#c0a080" stroke-width="0.3" opacity="0.2"/>

  <!-- ART NOUVEAU CORNER VINES -->
  <!-- Top-left -->
  <g stroke="url(#vineGold)" fill="none" stroke-linecap="round" stroke-linejoin="round">
    <path d="M26,80 Q38,78 48,68 Q60,56 58,44 Q56,34 46,32" stroke-width="1.2"/>
    <path d="M46,50 Q52,44 58,44" stroke-width="0.9"/>
    <path d="M38,60 Q34,52 36,44" stroke-width="0.9"/>
    <path d="M26,50 Q30,46 34,48 Q40,52 38,60" stroke-width="1"/>
    <path d="M50,66 Q56,62 58,56 Q60,50 56,48" stroke-width="0.7"/>
    <path d="M42,74 Q48,70 50,64" stroke-width="0.7"/>
  </g>
  <g fill="#c0a888" opacity="0.7">
    <ellipse cx="44" cy="56" rx="8" ry="4" transform="rotate(-40,44,56)"/>
    <ellipse cx="34" cy="46" rx="7" ry="3.5" transform="rotate(-65,34,46)"/>
    <ellipse cx="54" cy="50" rx="6" ry="3" transform="rotate(-20,54,50)"/>
  </g>
  <circle cx="58" cy="44" r="5" fill="#e8c0b0" opacity="0.6"/>
  <circle cx="58" cy="44" r="3" fill="#d8a898" opacity="0.8"/>

  <!-- Top-right -->
  <g stroke="url(#vineGold)" fill="none" stroke-linecap="round">
    <path d="M454,80 Q442,78 432,68 Q420,56 422,44 Q424,34 434,32" stroke-width="1.2"/>
    <path d="M434,50 Q428,44 422,44" stroke-width="0.9"/>
    <path d="M442,60 Q446,52 444,44" stroke-width="0.9"/>
    <path d="M454,50 Q450,46 446,48 Q440,52 442,60" stroke-width="1"/>
    <path d="M430,66 Q424,62 422,56 Q420,50 424,48" stroke-width="0.7"/>
    <path d="M438,74 Q432,70 430,64" stroke-width="0.7"/>
  </g>
  <g fill="#c0a888" opacity="0.7">
    <ellipse cx="436" cy="56" rx="8" ry="4" transform="rotate(40,436,56)"/>
    <ellipse cx="446" cy="46" rx="7" ry="3.5" transform="rotate(65,446,46)"/>
    <ellipse cx="426" cy="50" rx="6" ry="3" transform="rotate(20,426,50)"/>
  </g>
  <circle cx="422" cy="44" r="5" fill="#e8c0b0" opacity="0.6"/>
  <circle cx="422" cy="44" r="3" fill="#d8a898" opacity="0.8"/>

  <!-- Bottom-left -->
  <g stroke="url(#vineGold)" fill="none" stroke-linecap="round">
    <path d="M26,600 Q38,602 48,612 Q60,624 58,636 Q56,646 46,648" stroke-width="1.2"/>
    <path d="M46,630 Q52,636 58,636" stroke-width="0.9"/>
    <path d="M38,620 Q34,628 36,636" stroke-width="0.9"/>
    <path d="M26,630 Q30,634 34,632 Q40,628 38,620" stroke-width="1"/>
    <path d="M50,614 Q56,618 58,624 Q60,630 56,632" stroke-width="0.7"/>
  </g>
  <g fill="#c0a888" opacity="0.7">
    <ellipse cx="44" cy="624" rx="8" ry="4" transform="rotate(40,44,624)"/>
    <ellipse cx="34" cy="634" rx="7" ry="3.5" transform="rotate(65,34,634)"/>
  </g>
  <circle cx="58" cy="636" r="5" fill="#e8c0b0" opacity="0.6"/>
  <circle cx="58" cy="636" r="3" fill="#d8a898" opacity="0.8"/>

  <!-- Bottom-right -->
  <g stroke="url(#vineGold)" fill="none" stroke-linecap="round">
    <path d="M454,600 Q442,602 432,612 Q420,624 422,636 Q424,646 434,648" stroke-width="1.2"/>
    <path d="M434,630 Q428,636 422,636" stroke-width="0.9"/>
    <path d="M442,620 Q446,628 444,636" stroke-width="0.9"/>
    <path d="M454,630 Q450,634 446,632 Q440,628 442,620" stroke-width="1"/>
  </g>
  <g fill="#c0a888" opacity="0.7">
    <ellipse cx="436" cy="624" rx="8" ry="4" transform="rotate(-40,436,624)"/>
    <ellipse cx="446" cy="634" rx="7" ry="3.5" transform="rotate(-65,446,634)"/>
  </g>
  <circle cx="422" cy="636" r="5" fill="#e8c0b0" opacity="0.6"/>
  <circle cx="422" cy="636" r="3" fill="#d8a898" opacity="0.8"/>

  <!-- TEXT -->
  <text x="240" y="128" font-family="'Palatino Linotype',Palatino,serif"
        font-size="9.5" fill="#b09070" letter-spacing="6" text-anchor="middle">WEDDING INVITATION</text>

  <line x1="90" y1="142" x2="390" y2="142" stroke="#c0a080" stroke-width="0.5" opacity="0.35"/>
  <line x1="90" y1="146" x2="390" y2="146" stroke="#c0a080" stroke-width="0.2" opacity="0.2"/>

  <text x="240" y="225" font-family="Georgia,serif"
        font-size="52" fill="#4a3020" font-style="italic" text-anchor="middle" id="bride">Zawadi</text>

  <text x="240" y="258" font-family="Georgia,serif" font-size="18" fill="#c0a080" text-anchor="middle" font-style="italic">&amp;</text>

  <text x="240" y="320" font-family="Georgia,serif"
        font-size="52" fill="#4a3020" font-style="italic" text-anchor="middle" id="groom">Kelvin</text>

  <g fill="#c0a888" opacity="0.6">
    <circle cx="230" cy="345" r="2"/>
    <circle cx="240" cy="345" r="2.5"/>
    <circle cx="250" cy="345" r="2"/>
  </g>

  <text x="240" y="380" font-family="'Palatino Linotype',Palatino,serif"
        font-size="11.5" fill="#8a7058" letter-spacing="2" text-anchor="middle" id="date">Jumamosi, 5 Julai · 2025</text>

  <text x="240" y="400" font-family="'Palatino Linotype',Palatino,serif"
        font-size="10.5" fill="#a09070" letter-spacing="1" text-anchor="middle" id="time">saa kumi alasiri</text>

  <line x1="120" y1="418" x2="360" y2="418" stroke="#c0a080" stroke-width="0.4" opacity="0.3"/>

  <text x="240" y="444" font-family="Georgia,serif"
        font-size="13.5" fill="#5a4030" font-style="italic" text-anchor="middle" id="venue">Mbweni Ruins Hotel</text>

  <text x="240" y="462" font-family="'Palatino Linotype',Palatino,serif"
        font-size="9.5" fill="#a08860" letter-spacing="1.5" text-anchor="middle" id="address">Mbweni · Zanzibar</text>

  <!-- QR -->
  <rect x="204" y="490" width="72" height="72" rx="1" fill="none" stroke="#c0a080" stroke-width="0.7" opacity="0.35"/>
  <rect x="207" y="493" width="66" height="66" rx="1" fill="#f0e8e0"/>
  <g fill="#7a5838" opacity="0.5">
    <rect x="210" y="496" width="14" height="14" rx="0.5"/>
    <rect x="212" y="498" width="10" height="10" rx="0.3" fill="#f0e8e0"/>
    <rect x="214" y="500" width="6" height="6" fill="#7a5838"/>
    <rect x="248" y="496" width="14" height="14" rx="0.5"/>
    <rect x="250" y="498" width="10" height="10" rx="0.3" fill="#f0e8e0"/>
    <rect x="252" y="500" width="6" height="6" fill="#7a5838"/>
    <rect x="210" y="530" width="14" height="14" rx="0.5"/>
    <rect x="212" y="532" width="10" height="10" rx="0.3" fill="#f0e8e0"/>
    <rect x="214" y="534" width="6" height="6" fill="#7a5838"/>
    <rect x="230" y="496" width="4" height="4"/>
    <rect x="236" y="500" width="4" height="6"/>
    <rect x="230" y="508" width="6" height="4"/>
    <rect x="238" y="512" width="4" height="4"/>
    <rect x="230" y="518" width="4" height="4"/>
    <rect x="248" y="516" width="6" height="4"/>
    <rect x="250" y="522" width="4" height="4"/>
    <rect x="248" y="528" width="4" height="4"/>
    <rect x="254" y="532" width="6" height="4"/>
    <rect x="230" y="530" width="4" height="4"/>
    <rect x="236" y="536" width="4" height="4"/>
  </g>
  <text x="240" y="578" font-family="'Palatino Linotype',Palatino,serif"
        font-size="8.5" fill="#b09070" letter-spacing="2" text-anchor="middle">SCAN TO RSVP</text>

  <text x="240" y="622" font-family="'Palatino Linotype',Palatino,serif"
        font-size="9" fill="#c0a080" letter-spacing="2" text-anchor="middle" id="rsvp">RSVP · nuru.tz</text>
  <rect x="204" y="556" width="72" height="72" fill="none" stroke="#888" stroke-opacity="0.5" opacity="0.001"/>
</svg>