<svg xmlns="http://www.w3.org/2000/svg" viewBox="0 0 480 680" width="480" height="680">
  <defs>
    <linearGradient id="bg" x1="0%" y1="0%" x2="100%" y2="100%">
      <stop offset="0%" stop-color="#1a1a1a"/>
      <stop offset="100%" stop-color="#141414"/>
    </linearGradient>
    <linearGradient id="craneGold" x1="0%" y1="0%" x2="100%" y2="100%">
      <stop offset="0%" stop-color="#e8d068"/>
      <stop offset="45%" stop-color="#c8a828"/>
      <stop offset="100%" stop-color="#a08010"/>
    </linearGradient>
    <linearGradient id="craneLight" x1="0%" y1="0%" x2="100%" y2="100%">
      <stop offset="0%" stop-color="#f0e098"/>
      <stop offset="100%" stop-color="#d4b040"/>
    </linearGradient>
    <filter id="craneGlow" x="-30%" y="-30%" width="160%" height="160%">
      <feGaussianBlur stdDeviation="6" result="b"/>
      <feMerge><feMergeNode in="b"/><feMergeNode in="SourceGraphic"/></feMerge>
    </filter>
  </defs>

  <rect width="480" height="680" fill="url(#bg)"/>

  <rect x="32" y="32" width="416" height="616" fill="none" stroke="#c8a828" stroke-width="0.5" opacity="0.2"/>

  <!-- ORIGAMI CRANE -->
  <g transform="translate(240,185)" filter="url(#craneGlow)">
    <polygon points="0,-85 65,-20 40,30 -40,30 -65,-20"
             fill="#c8a82810" stroke="url(#craneGold)" stroke-width="1.2"/>
    <line x1="0" y1="-85" x2="0" y2="30" stroke="url(#craneLight)" stroke-width="0.6" opacity="0.4"/>
    <line x1="0" y1="-85" x2="65" y2="-20" stroke="url(#craneLight)" stroke-width="0.4" opacity="0.3"/>
    <line x1="0" y1="-85" x2="-65" y2="-20" stroke="url(#craneLight)" stroke-width="0.4" opacity="0.3"/>
    <line x1="-65" y1="-20" x2="65" y2="-20" stroke="url(#craneLight)" stroke-width="0.5" opacity="0.25"/>
    <polygon points="65,-20 135,-55 120,-10 65,-20"
             fill="#c8a82808" stroke="url(#craneGold)" stroke-width="1.1"/>
    <line x1="65" y1="-20" x2="135" y2="-55" stroke="url(#craneLight)" stroke-width="0.4" opacity="0.3"/>
    <line x1="65" y1="-20" x2="128" y2="-30" stroke="url(#craneLight)" stroke-width="0.3" opacity="0.2"/>
    <polygon points="135,-55 160,-75 148,-40"
             fill="#c8a82808" stroke="url(#craneGold)" stroke-width="0.9"/>
    <polygon points="-65,-20 -135,-55 -120,-10 -65,-20"
             fill="#c8a82808" stroke="url(#craneGold)" stroke-width="1.1"/>
    <line x1="-65" y1="-20" x2="-135" y2="-55" stroke="url(#craneLight)" stroke-width="0.4" opacity="0.3"/>
    <polygon points="-135,-55 -160,-75 -148,-40"
             fill="#c8a82808" stroke="url(#craneGold)" stroke-width="0.9"/>
    <polygon points="40,30 80,75 20,45"
             fill="#c8a82808" stroke="url(#craneGold)" stroke-width="1"/>
    <polygon points="80,75 100,105 65,80"
             fill="#c8a82806" stroke="url(#craneGold)" stroke-width="0.8"/>
    <polygon points="-40,30 -70,65 -20,50"
             fill="#c8a82808" stroke="url(#craneGold)" stroke-width="1"/>
    <polygon points="-70,65 -88,58 -72,78"
             fill="#c8a82808" stroke="url(#craneGold)" stroke-width="0.8"/>
    <circle cx="-55" cy="55" r="2.5" fill="url(#craneGold)" opacity="0.7"/>
  </g>

  <!-- Red dot accent -->
  <circle cx="308" cy="188" r="6" fill="#c82820" opacity="0.75"/>

  <!-- TEXT -->
  <text x="240" y="358" font-family="'Palatino Linotype',Palatino,serif"
        font-size="9" fill="#c8a828" letter-spacing="7" text-anchor="middle" opacity="0.7">KUAGANA</text>

  <text x="240" y="428" font-family="Georgia,serif"
        font-size="54" fill="#f0ead8" font-style="italic" text-anchor="middle" id="honoree">Bakari</text>

  <text x="240" y="460" font-family="'Palatino Linotype',Palatino,serif"
        font-size="10" fill="#605848" letter-spacing="5" text-anchor="middle" id="surname">MWINYI</text>

  <line x1="80" y1="478" x2="400" y2="478" stroke="#c8a828" stroke-width="0.4" opacity="0.2"/>

  <text x="240" y="508" font-family="'Palatino Linotype',Palatino,serif"
        font-size="11.5" fill="#a09070" letter-spacing="2" text-anchor="middle" id="date">Alhamisi · 10 Aprili · 2025</text>

  <text x="240" y="528" font-family="'Palatino Linotype',Palatino,serif"
        font-size="10.5" fill="#705840" letter-spacing="1" text-anchor="middle" id="venue">Protea Hotel Arusha</text>

  <text x="240" y="548" font-family="'Palatino Linotype',Palatino,serif"
        font-size="10" fill="#504030" letter-spacing="1" text-anchor="middle" id="time">kuanzia saa moja jioni</text>

  <!-- QR -->
  <rect x="204" y="572" width="72" height="72" rx="0" fill="none" stroke="#c8a828" stroke-width="0.5" opacity="0.2"/>
  <rect x="207" y="575" width="66" height="66" rx="0" fill="#1e1e1e"/>
  <g fill="#c8a828" opacity="0.35">
    <rect x="210" y="578" width="14" height="14"/>
    <rect x="212" y="580" width="10" height="10" fill="#1e1e1e"/>
    <rect x="214" y="582" width="6" height="6" fill="#c8a828"/>
    <rect x="248" y="578" width="14" height="14"/>
    <rect x="250" y="580" width="10" height="10" fill="#1e1e1e"/>
    <rect x="252" y="582" width="6" height="6" fill="#c8a828"/>
    <rect x="210" y="612" width="14" height="14"/>
    <rect x="212" y="614" width="10" height="10" fill="#1e1e1e"/>
    <rect x="214" y="616" width="6" height="6" fill="#c8a828"/>
    <rect x="230" y="578" width="4" height="4"/>
    <rect x="236" y="584" width="4" height="4"/>
    <rect x="230" y="590" width="6" height="4"/>
    <rect x="238" y="596" width="4" height="4"/>
    <rect x="230" y="602" width="4" height="4"/>
    <rect x="248" y="596" width="6" height="4"/>
    <rect x="252" y="602" width="4" height="4"/>
    <rect x="248" y="610" width="4" height="4"/>
    <rect x="254" y="616" width="4" height="4"/>
    <rect x="230" y="614" width="4" height="4"/>
    <rect x="236" y="618" width="4" height="4"/>
  </g>
  <text x="240" y="658" font-family="'Palatino Linotype',Palatino,serif"
        font-size="8.5" fill="#c8a828" letter-spacing="3" text-anchor="middle" opacity="0.5">SCAN · RSVP</text>
</svg>