<svg xmlns="http://www.w3.org/2000/svg" viewBox="0 0 480 680" preserveAspectRatio="xMidYMid meet">
  <defs>
    <linearGradient id="bg15" x1="0" y1="0" x2="0" y2="1">
      <stop offset="0%" stop-color="#f7f1e8"/>
      <stop offset="100%" stop-color="#ecdfc7"/>
    </linearGradient>
  </defs>
  <rect width="480" height="680" fill="url(#bg15)"/>
  <!-- Tropical palms left/right -->
  <g stroke="#3a5a3a" fill="none" stroke-width="1.4" opacity="0.85">
    <path d="M30 680 Q40 460 110 350"/>
    <path d="M110 350 Q70 320 50 290 M110 350 Q140 320 170 320 M110 350 Q90 380 60 410 M110 350 Q140 380 180 400"/>
    <path d="M450 680 Q440 460 370 350"/>
    <path d="M370 350 Q330 320 310 320 M370 350 Q400 320 430 290 M370 350 Q340 380 310 400 M370 350 Q400 380 430 410"/>
  </g>
  <text x="240" y="120" text-anchor="middle" font-family="Inter, sans-serif" font-size="11" letter-spacing="6" fill="#5a3a2a" id="headline">SAVE OUR DATE</text>
  <text x="240" y="280" text-anchor="middle" font-family="Playfair Display, serif" font-size="42" font-style="italic" fill="#3a2a1a" id="bride">Halima</text>
  <text x="240" y="320" text-anchor="middle" font-family="Inter, sans-serif" font-size="13" letter-spacing="4" fill="#7a5a3a">AND</text>
  <text x="240" y="365" text-anchor="middle" font-family="Playfair Display, serif" font-size="42" font-style="italic" fill="#3a2a1a" id="groom">Idris</text>
  <line x1="180" y1="395" x2="300" y2="395" stroke="#5a3a2a" stroke-opacity="0.5"/>
  <text x="240" y="430" text-anchor="middle" font-family="Inter, sans-serif" font-size="12" letter-spacing="2" fill="#3a2a1a" id="date">SAT · 14 NOV 2026</text>
  <text x="240" y="452" text-anchor="middle" font-family="Inter, sans-serif" font-size="11" letter-spacing="2" fill="#7a5a3a" id="time">4:00 PM CEREMONY</text>
  <text x="240" y="482" text-anchor="middle" font-family="Inter, sans-serif" font-size="11" letter-spacing="2" fill="#3a2a1a" id="venue">RAS KUTANI BEACH RESORT</text>
  <text x="240" y="502" text-anchor="middle" font-family="Inter, sans-serif" font-size="9" fill="#7a5a3a" id="address">South Coast · Dar es Salaam</text>
  <text x="240" y="612" text-anchor="middle" font-family="Inter, sans-serif" font-size="9" letter-spacing="3" fill="#7a5a3a" id="footer_note">RECEPTION ON THE SAND</text>
  <rect x="204" y="546" width="72" height="72" fill="#f7f1e8" stroke="#5a3a2a" stroke-opacity="0.5" opacity="0.001"/>
</svg>
