<svg xmlns="http://www.w3.org/2000/svg" viewBox="0 0 480 680" preserveAspectRatio="xMidYMid meet">
  <defs>
    <linearGradient id="bg17" x1="0" y1="0" x2="0" y2="1">
      <stop offset="0%" stop-color="#1a2a3a"/>
      <stop offset="100%" stop-color="#0e1a2a"/>
    </linearGradient>
    <radialGradient id="moon17" cx="75%" cy="22%" r="14%">
      <stop offset="0%" stop-color="#f4e8a8"/>
      <stop offset="100%" stop-color="#f4e8a8" stop-opacity="0"/>
    </radialGradient>
  </defs>
  <rect width="480" height="680" fill="url(#bg17)"/>
  <rect width="480" height="680" fill="url(#moon17)"/>
  <circle cx="360" cy="150" r="28" fill="#f4e8a8" opacity="0.8"/>
  <circle cx="372" cy="142" r="22" fill="#1a2a3a"/>
  <!-- Mountain -->
  <path d="M0 540 L120 380 L200 460 L300 320 L400 440 L480 400 L480 680 L0 680 Z" fill="#0a1420" opacity="0.95"/>
  <path d="M0 540 L120 380 L200 460 L300 320 L400 440 L480 400" stroke="#5a7a9a" stroke-opacity="0.4" fill="none"/>
  <!-- Stars -->
  <g fill="#f4e8a8" opacity="0.85">
    <circle cx="60" cy="100" r="1.5"/>
    <circle cx="140" cy="80" r="1"/>
    <circle cx="200" cy="140" r="1.5"/>
    <circle cx="280" cy="60" r="1"/>
    <circle cx="100" cy="200" r="1"/>
    <circle cx="240" cy="200" r="1.5"/>
  </g>
  <text x="240" y="50" text-anchor="middle" font-family="Inter, sans-serif" font-size="11" letter-spacing="6" fill="#c8b878" id="headline">UNTIL WE MEET AGAIN</text>
  <text x="240" y="320" text-anchor="middle" font-family="Playfair Display, serif" font-size="42" font-style="italic" fill="#f0e8c8" id="honoree">Bon Voyage</text>
  <text x="240" y="350" text-anchor="middle" font-family="Inter, sans-serif" font-size="10" letter-spacing="3" fill="#a89868" id="sub_headline">A FAREWELL UNDER THE STARS</text>
  <text x="240" y="430" text-anchor="middle" font-family="Inter, sans-serif" font-size="12" letter-spacing="2" fill="#f0e8c8" id="date">FRI · 03 JUL 2026</text>
  <text x="240" y="452" text-anchor="middle" font-family="Inter, sans-serif" font-size="11" letter-spacing="2" fill="#a89868" id="time">7:00 PM</text>
  <text x="240" y="482" text-anchor="middle" font-family="Inter, sans-serif" font-size="11" letter-spacing="2" fill="#f0e8c8" id="venue">SEA CLIFF VILLAGE</text>
  <text x="240" y="502" text-anchor="middle" font-family="Inter, sans-serif" font-size="9" fill="#a89868" id="address">Toure Drive · Dar es Salaam</text>
  <text x="240" y="612" text-anchor="middle" font-family="Inter, sans-serif" font-size="9" letter-spacing="3" fill="#a89868" id="footer_note">SAFE TRAVELS, FRIEND</text>
  <rect x="204" y="546" width="72" height="72" fill="#0e1a2a" stroke="#c8b878" stroke-opacity="0.5" opacity="0.001"/>
</svg>
