<svg xmlns="http://www.w3.org/2000/svg" viewBox="0 0 480 680" preserveAspectRatio="xMidYMid meet">
  <defs>
    <linearGradient id="bg18" x1="0" y1="0" x2="1" y2="1">
      <stop offset="0%" stop-color="#3a1a1a"/>
      <stop offset="100%" stop-color="#5a2a2a"/>
    </linearGradient>
  </defs>
  <rect width="480" height="680" fill="url(#bg18)"/>
  <!-- Roman numeral L -->
  <text x="240" y="240" text-anchor="middle" font-family="Playfair Display, serif" font-size="180" font-weight="700" fill="#d8a868" fill-opacity="0.18">L</text>
  <!-- Heart -->
  <g transform="translate(240 270)" fill="#d8a868">
    <path d="M0 18 C-22 -8 -42 -2 -42 -16 C-42 -28 -30 -34 -18 -28 C-8 -22 0 -10 0 -10 C0 -10 8 -22 18 -28 C30 -34 42 -28 42 -16 C42 -2 22 -8 0 18 Z"/>
  </g>
  <text x="240" y="340" text-anchor="middle" font-family="Inter, sans-serif" font-size="11" letter-spacing="6" fill="#d8a868" id="headline">FIFTY GOLDEN YEARS</text>
  <text x="240" y="400" text-anchor="middle" font-family="Playfair Display, serif" font-size="38" font-style="italic" fill="#f4e0c0" id="couple">Asha &amp; Hamis</text>
  <text x="240" y="428" text-anchor="middle" font-family="Inter, sans-serif" font-size="10" letter-spacing="3" fill="#c89858" id="sub_headline">RENEW THEIR VOWS</text>
  <line x1="200" y1="450" x2="280" y2="450" stroke="#d8a868" stroke-opacity="0.6"/>
  <text x="240" y="486" text-anchor="middle" font-family="Inter, sans-serif" font-size="12" letter-spacing="2" fill="#f4e0c0" id="date">SUN · 12 SEP 2026</text>
  <text x="240" y="508" text-anchor="middle" font-family="Inter, sans-serif" font-size="11" letter-spacing="2" fill="#c89858" id="time">5:00 PM</text>
  <text x="240" y="536" text-anchor="middle" font-family="Inter, sans-serif" font-size="11" letter-spacing="2" fill="#f4e0c0" id="venue">HYATT REGENCY KILIMANJARO</text>
  <text x="240" y="612" text-anchor="middle" font-family="Inter, sans-serif" font-size="9" letter-spacing="3" fill="#c89858" id="footer_note">DRESS · GOLD &amp; IVORY</text>
  <rect x="204" y="546" width="72" height="72" fill="#3a1a1a" stroke="#d8a868" stroke-opacity="0.6" opacity="0.001"/>
</svg>
