<svg xmlns="http://www.w3.org/2000/svg" viewBox="0 0 480 680" preserveAspectRatio="xMidYMid meet">
  <defs>
    <linearGradient id="bg19" x1="0" y1="0" x2="0" y2="1">
      <stop offset="0%" stop-color="#e8e2d4"/>
      <stop offset="100%" stop-color="#d4cab4"/>
    </linearGradient>
  </defs>
  <rect width="480" height="680" fill="url(#bg19)"/>
  <!-- Olive branch wreath -->
  <g stroke="#4a5a3a" stroke-width="1.2" fill="none" opacity="0.85">
    <ellipse cx="240" cy="200" rx="100" ry="60" stroke-opacity="0.3"/>
    <g fill="#4a5a3a" stroke="none">
      <ellipse cx="160" cy="180" rx="8" ry="3" transform="rotate(-30 160 180)"/>
      <ellipse cx="170" cy="220" rx="8" ry="3" transform="rotate(30 170 220)"/>
      <ellipse cx="200" cy="245" rx="8" ry="3" transform="rotate(60 200 245)"/>
      <ellipse cx="240" cy="255" rx="8" ry="3" transform="rotate(90 240 255)"/>
      <ellipse cx="280" cy="245" rx="8" ry="3" transform="rotate(120 280 245)"/>
      <ellipse cx="310" cy="220" rx="8" ry="3" transform="rotate(150 310 220)"/>
      <ellipse cx="320" cy="180" rx="8" ry="3" transform="rotate(-150 320 180)"/>
      <ellipse cx="300" cy="155" rx="8" ry="3" transform="rotate(-120 300 155)"/>
      <ellipse cx="240" cy="142" rx="8" ry="3" transform="rotate(-90 240 142)"/>
      <ellipse cx="180" cy="155" rx="8" ry="3" transform="rotate(-60 180 155)"/>
    </g>
  </g>
  <text x="240" y="200" text-anchor="middle" font-family="Playfair Display, serif" font-size="22" font-style="italic" fill="#3a4a2a">in loving memory</text>
  <text x="240" y="320" text-anchor="middle" font-family="Inter, sans-serif" font-size="11" letter-spacing="6" fill="#5a6a4a" id="headline">A LIFE WELL LIVED</text>
  <text x="240" y="380" text-anchor="middle" font-family="Playfair Display, serif" font-size="40" font-style="italic" fill="#2a3a1a" id="honoree">Mzee Salim</text>
  <text x="240" y="408" text-anchor="middle" font-family="Inter, sans-serif" font-size="10" letter-spacing="3" fill="#5a6a4a" id="sub_headline">1944 — 2026</text>
  <line x1="180" y1="430" x2="300" y2="430" stroke="#4a5a3a" stroke-opacity="0.5"/>
  <text x="240" y="468" text-anchor="middle" font-family="Inter, sans-serif" font-size="12" letter-spacing="2" fill="#2a3a1a" id="date">SAT · 04 APR 2026</text>
  <text x="240" y="490" text-anchor="middle" font-family="Inter, sans-serif" font-size="11" letter-spacing="2" fill="#5a6a4a" id="time">10:00 AM SERVICE</text>
  <text x="240" y="518" text-anchor="middle" font-family="Inter, sans-serif" font-size="11" letter-spacing="2" fill="#2a3a1a" id="venue">ST JOSEPH CATHEDRAL</text>
  <text x="240" y="538" text-anchor="middle" font-family="Inter, sans-serif" font-size="9" fill="#5a6a4a" id="address">Sokoine Drive · Dar es Salaam</text>
  <text x="240" y="612" text-anchor="middle" font-family="Inter, sans-serif" font-size="9" letter-spacing="3" fill="#5a6a4a" id="footer_note">FAMILY GATHERING TO FOLLOW</text>
  <rect x="204" y="546" width="72" height="72" fill="#e8e2d4" stroke="#4a5a3a" stroke-opacity="0.5" opacity="0.001"/>
</svg>
