<svg xmlns="http://www.w3.org/2000/svg" viewBox="0 0 480 680" preserveAspectRatio="xMidYMid meet">
  <defs>
    <linearGradient id="bg25" x1="0" y1="0" x2="0" y2="1">
      <stop offset="0%" stop-color="#fef4ed"/>
      <stop offset="100%" stop-color="#f5e0d4"/>
    </linearGradient>
  </defs>
  <rect width="480" height="680" fill="url(#bg25)"/>

  <!-- Clouds -->
  <g fill="#ffffff" opacity="0.9">
    <ellipse cx="120" cy="160" rx="60" ry="22"/>
    <ellipse cx="100" cy="150" rx="34" ry="20"/>
    <ellipse cx="370" cy="190" rx="55" ry="20"/>
    <ellipse cx="395" cy="180" rx="30" ry="18"/>
    <ellipse cx="240" cy="540" rx="80" ry="26"/>
    <ellipse cx="200" cy="528" rx="40" ry="22"/>
    <ellipse cx="280" cy="528" rx="40" ry="22"/>
  </g>

  <!-- Stars -->
  <g fill="#e8a880">
    <circle cx="200" cy="120" r="2"/>
    <circle cx="320" cy="140" r="1.5"/>
    <circle cx="80" cy="220" r="2"/>
    <circle cx="420" cy="280" r="1.5"/>
  </g>

  <text x="240" y="260" text-anchor="middle" font-family="Inter, sans-serif" font-size="11" letter-spacing="6" fill="#c47755" id="headline">BABY SHOWER</text>

  <text x="240" y="335" text-anchor="middle" font-family="Playfair Display, serif" font-size="42" font-style="italic" fill="#7a4030" id="honoree">Baby Mussa</text>
  <text x="240" y="365" text-anchor="middle" font-family="Inter, sans-serif" font-size="10" letter-spacing="3" fill="#c47755" id="sub_headline">A LITTLE ONE IS ON THE WAY</text>

  <line x1="200" y1="395" x2="280" y2="395" stroke="#c47755" stroke-opacity="0.5"/>

  <text x="240" y="430" text-anchor="middle" font-family="Inter, sans-serif" font-size="11" letter-spacing="3" fill="#7a4030" id="date">SUN · 22 NOV 2026</text>
  <text x="240" y="450" text-anchor="middle" font-family="Inter, sans-serif" font-size="10" letter-spacing="2" fill="#c47755" id="time">3:00 PM AFTERNOON TEA</text>
  <text x="240" y="475" text-anchor="middle" font-family="Inter, sans-serif" font-size="10" letter-spacing="2" fill="#7a4030" id="venue">SLIPWAY GARDEN</text>
  <text x="240" y="492" text-anchor="middle" font-family="Inter, sans-serif" font-size="9" fill="#a87055" id="address">Masaki · Dar es Salaam</text>

  <text x="240" y="620" text-anchor="middle" font-family="Inter, sans-serif" font-size="9" letter-spacing="3" fill="#a87055" id="footer_note">GIFTS WELCOME · NO BLUE OR PINK</text>

  <rect x="204" y="534" width="72" height="72" fill="none" stroke="#888" stroke-opacity="0.5" opacity="0.001"/>
</svg>
