<svg width="24" height="24" viewBox="0 0 24 24" fill="none" xmlns="http://www.w3.org/2000/svg">
<path d="M18.7491 9.71002V9.00002C18.7491 5.27002 15.7291 2.25002 12.0091 2.25002C8.28906 2.25002 5.26906 5.27002 5.26906 9.00002V9.71002C5.26906 10.55 4.99906 11.37 4.49906 12.06L3.16906 13.92C2.06906 15.46 2.86906 17.58 4.69906 18.07C9.37906 19.37 14.6291 19.37 19.3091 18.07C21.1391 17.58 21.9491 15.46 20.8391 13.92L19.5091 12.06C19.0091 11.37 18.7491 10.55 18.7491 9.71002Z" stroke="currentColor" stroke-width="1.5" stroke-linecap="round"/>
<path d="M7.5 19C8.15 20.95 9.92 22 12 22C14.08 22 15.85 20.95 16.5 19" stroke="currentColor" stroke-width="1.5" stroke-linecap="round"/>
</svg>
