<svg width="800px" height="800px" viewBox="0 0 24 24" fill="none" xmlns="http://www.w3.org/2000/svg">
<path d="M7 5V4C7 2.89543 7.89543 2 9 2H15C16.1046 2 17 2.89543 17 4V5" stroke="currentColor" stroke-width="1.5" stroke-linecap="round"/>
<path d="M5 8H19C20.1046 8 21 8.89543 21 10V16C21 17.1046 20.1046 18 19 18H17V20C17 21.1046 16.1046 22 15 22H9C7.89543 22 7 21.1046 7 20V18H5C3.89543 18 3 17.1046 3 16V10C3 8.89543 3.89543 8 5 8Z" stroke="currentColor" stroke-width="1.5"/>
<path d="M17 12H18" stroke="currentColor" stroke-width="1.5" stroke-linecap="round"/>
<path d="M9 16H15" stroke="currentColor" stroke-width="1.5" stroke-linecap="round"/>
<path d="M9 19H15" stroke="currentColor" stroke-width="1.5" stroke-linecap="round"/>
</svg>